<svg xmlns="http://www.w3.org/2000/svg" viewBox="0 0 512 512" role="img">
<title>Roc</title>
<defs><radialGradient id="disc" cx="50%" cy="36%" r="70%">
<stop offset="0" stop-color="#7b8456"/><stop offset="1" stop-color="#383f19"/>
</radialGradient></defs>
<circle cx="256" cy="256" r="256" fill="url(#disc)"/>
<circle cx="256" cy="256" r="236" fill="none" stroke="#f3eee4" stroke-opacity=".18" stroke-width="5"/>
<g color="#f3eee4" transform="translate(104 104) scale(.59375)"><path fill="currentColor" d="M22.472 28.76c107.552 68.108 207.02 121.53 322.01 133.68c40.707 4.3 47.814 34.94 31.675 70.102c-26.52 57.774 16.43 143.547 112.342 195.465c-5.983 27.987-46.316 51.545-71.16 43.272c-20.682-43.168-52.9-88.738-87.806-76.376c-71.394 25.286-144.915 30.663-194.836 3.448c66.227-8.987 129.273-26.595 184.8-54.342C219.18 359.013 100.407 359.4 55.4 309.038c91.057 3.638 164.862-5.6 247.26-26.224C192.912 272.707 72.247 252.64 38.277 185.35c80.977 25.247 189.57 34.646 263.032 35.158C186.86 191.675 32.936 112.722 22.47 28.76z"/></g>
</svg>
