<svg xmlns="http://www.w3.org/2000/svg" viewBox="0 0 512 512" role="img">
<title>Warhorse</title>
<defs><radialGradient id="disc" cx="50%" cy="36%" r="70%">
<stop offset="0" stop-color="#8e7761"/><stop offset="1" stop-color="#483522"/>
</radialGradient></defs>
<circle cx="256" cy="256" r="256" fill="url(#disc)"/>
<circle cx="256" cy="256" r="236" fill="none" stroke="#f3eee4" stroke-opacity=".18" stroke-width="5"/>
<g color="#f3eee4" transform="translate(104 104) scale(.59375)"><path fill="currentColor" d="M60.81 476.91h300v-60h-300zm233.79-347.3l13.94 7.39c31.88-43.62 61.34-31.85 61.34-31.85l-21.62 53l35.64 19l2.87 33l64.42 108.75l-43.55 29.37s-26.82-36.39-39.65-43.66c-10.66-6-41.22-10.25-56.17-12l-67.54-76.91l-12 10.56l37.15 42.31c-.13.18-.25.37-.38.57c-35.78 58.17 23 105.69 68.49 131.78H84.14C93 85 294.6 129.61 294.6 129.61"/></g>
</svg>
